<svg height="32" viewBox="0 0 32 32" width="32" xmlns="http://www.w3.org/2000/svg"><path d="m29.744 11.439c-.13-.973-.148-2.65.756-3.213.017-.01.028-.025.043-.038.739-.236 1.251-.568.849-1.015l-10.906-3.286-17.659 2.455s-2.022.289-1.842 3.431c.098 1.71.634 2.55 1.103 2.963l-1.449.437c-.402.446.109.778.849 1.015.014.013.026.028.042.038.904.564.886 2.241.756 3.214-3.246.922-2.081 1.222-2.081 1.222l.712.172c-.501.453-.999 1.311-.905 2.939.181 3.142 1.842 3.358 1.842 3.358l11.556 3.756 17.442-4.225s1.166-.301-2.082-1.223c-.131-.972-.149-2.649.757-3.213.017-.01.028-.025.042-.038.739-.236 1.251-.568.849-1.015l-.758-.229c.506-.305 1.266-1.102 1.384-3.172.082-1.423-.289-2.258-.719-2.748l1.498-.363c0 .001 1.166-.3-2.081-1.222zm-14.589-.04 14.322-2.943c-.472.863-.452 2.045-.374 2.805.018.172.037.329.056.448l-14.127 3.514zm-12.6 3.057 14.322 2.943.123 3.824-14.126-3.514c.019-.119.038-.276.056-.448.077-.76.098-1.942-.375-2.805zm-.574-4.834c-.018-.836.131-1.44.432-1.747.191-.196.418-.237.572-.237.082 0 .141.011.145.011l11.405 3.718-.124 3.851-11.212-3.143c-.021-.006-.049-.01-.07-.011-.044-.003-1.097-.1-1.148-2.442zm11.457 17.597-11.211-3.143c-.021-.006-.049-.01-.07-.011-.044-.003-1.098-.1-1.149-2.442-.018-.836.132-1.44.432-1.748.192-.196.418-.237.573-.237.082 0 .141.011.145.011 0 0 .001 0 0 0l11.404 3.719-.124 3.85zm14.692-3.958c.018.172.037.329.056.448l-14.127 3.515.123-3.824 3.02-.621.446.108 1.672-.543 9.184-1.887c-.472.863-.453 2.045-.374 2.805zm.778-5.197c-.026.001-.052.004-.076.011l-11.211 3.143-.124-3.851 11.389-3.714c.001-.001.424-.094.734.221.3.307.45.911.432 1.747-.052 2.342-1.106 2.439-1.144 2.442z"/></svg>